<svg width="1100" height="500" class="svg-container"><g transform="translate(90,60)"><g transform="translate(0,390)" fill="none" font-size="10" font-family="sans-serif" text-anchor="middle"><path class="domain" stroke="currentColor" d="M15,6V0H955V6" stroke-width="2" opacity=".6" color="#059451"></path><g class="tick" opacity="1" transform="translate(29.536082474226806,0)"><line stroke="currentColor" y2="6"></line><text fill="currentColor" y="9" dy="0.71em" font-size="22" font-family="Roboto" color="#059451">6:40</text></g><g class="tick" opacity="1" transform="translate(126.44329896907216,0)"><line stroke="currentColor" y2="6"></line><text fill="currentColor" y="9" dy="0.71em" font-size="22" font-family="Roboto" color="#059451">8:20</text></g><g class="tick" opacity="1" transform="translate(223.35051546391753,0)"><line stroke="currentColor" y2="6"></line><text fill="currentColor" y="9" dy="0.71em" font-size="22" font-family="Roboto" color="#059451">10:00</text></g><g class="tick" opacity="1" transform="translate(320.25773195876286,0)"><line stroke="currentColor" y2="6"></line><text fill="currentColor" y="9" dy="0.71em" font-size="22" font-family="Roboto" color="#059451">11:40</text></g><g class="tick" opacity="1" transform="translate(417.1649484536082,0)"><line stroke="currentColor" y2="6"></line><text fill="currentColor" y="9" dy="0.71em" font-size="22" font-family="Roboto" color="#059451">13:20</text></g><g class="tick" opacity="1" transform="translate(514.0721649484536,0)"><line stroke="currentColor" y2="6"></line><text fill="currentColor" y="9" dy="0.71em" font-size="22" font-family="Roboto" color="#059451">15:00</text></g><g class="tick" opacity="1" transform="translate(610.979381443299,0)"><line stroke="currentColor" y2="6"></line><text fill="currentColor" y="9" dy="0.71em" font-size="22" font-family="Roboto" color="#059451">16:40</text></g><g class="tick" opacity="1" transform="translate(707.8865979381444,0)"><line stroke="currentColor" y2="6"></line><text fill="currentColor" y="9" dy="0.71em" font-size="22" font-family="Roboto" color="#059451">18:20</text></g><g class="tick" opacity="1" transform="translate(804.7938144329896,0)"><line stroke="currentColor" y2="6"></line><text fill="currentColor" y="9" dy="0.71em" font-size="22" font-family="Roboto" color="#059451">20:00</text></g><g class="tick" opacity="1" transform="translate(901.7010309278351,0)"><line stroke="currentColor" y2="6"></line><text fill="currentColor" y="9" dy="0.71em" font-size="22" font-family="Roboto" color="#059451">21:40</text></g></g><g transform="translate(0,-10)" fill="none" font-size="10" font-family="sans-serif" text-anchor="middle"><path class="domain" stroke="currentColor" d="M15,-6V0H955V-6" stroke-width="2" opacity=".6" color="#059451"></path><g class="tick" opacity="1" transform="translate(29.536082474226806,0)"><line stroke="currentColor" y2="-6"></line><text fill="currentColor" y="-9" dy="0em" font-size="22" font-family="Roboto" color="#059451">6:40</text></g><g class="tick" opacity="1" transform="translate(126.44329896907216,0)"><line stroke="currentColor" y2="-6"></line><text fill="currentColor" y="-9" dy="0em" font-size="22" font-family="Roboto" color="#059451">8:20</text></g><g class="tick" opacity="1" transform="translate(223.35051546391753,0)"><line stroke="currentColor" y2="-6"></line><text fill="currentColor" y="-9" dy="0em" font-size="22" font-family="Roboto" color="#059451">10:00</text></g><g class="tick" opacity="1" transform="translate(320.25773195876286,0)"><line stroke="currentColor" y2="-6"></line><text fill="currentColor" y="-9" dy="0em" font-size="22" font-family="Roboto" color="#059451">11:40</text></g><g class="tick" opacity="1" transform="translate(417.1649484536082,0)"><line stroke="currentColor" y2="-6"></line><text fill="currentColor" y="-9" dy="0em" font-size="22" font-family="Roboto" color="#059451">13:20</text></g><g class="tick" opacity="1" transform="translate(514.0721649484536,0)"><line stroke="currentColor" y2="-6"></line><text fill="currentColor" y="-9" dy="0em" font-size="22" font-family="Roboto" color="#059451">15:00</text></g><g class="tick" opacity="1" transform="translate(610.979381443299,0)"><line stroke="currentColor" y2="-6"></line><text fill="currentColor" y="-9" dy="0em" font-size="22" font-family="Roboto" color="#059451">16:40</text></g><g class="tick" opacity="1" transform="translate(707.8865979381444,0)"><line stroke="currentColor" y2="-6"></line><text fill="currentColor" y="-9" dy="0em" font-size="22" font-family="Roboto" color="#059451">18:20</text></g><g class="tick" opacity="1" transform="translate(804.7938144329896,0)"><line stroke="currentColor" y2="-6"></line><text fill="currentColor" y="-9" dy="0em" font-size="22" font-family="Roboto" color="#059451">20:00</text></g><g class="tick" opacity="1" transform="translate(901.7010309278351,0)"><line stroke="currentColor" y2="-6"></line><text fill="currentColor" y="-9" dy="0em" font-size="22" font-family="Roboto" color="#059451">21:40</text></g></g><g fill="none" font-size="10" font-family="sans-serif" text-anchor="end"><path class="domain" stroke="currentColor" d="M-6,0H0V380H-6" stroke-width="2" opacity=".6" color="#059451"></path><g class="tick" opacity="1" transform="translate(0,91.72413793103449)"><line stroke="currentColor" x2="-6"></line><text fill="currentColor" x="-9" dy="0.32em" font-size="22" font-family="Roboto" color="#059451">101</text></g><g class="tick" opacity="1" transform="translate(0,157.24137931034483)"><line stroke="currentColor" x2="-6"></line><text fill="currentColor" x="-9" dy="0.32em" font-size="22" font-family="Roboto" color="#059451">104</text></g><g class="tick" opacity="1" transform="translate(0,222.75862068965517)"><line stroke="currentColor" x2="-6"></line><text fill="currentColor" x="-9" dy="0.32em" font-size="22" font-family="Roboto" color="#059451">109</text></g><g class="tick" opacity="1" transform="translate(0,288.2758620689655)"><line stroke="currentColor" x2="-6"></line><text fill="currentColor" x="-9" dy="0.32em" font-size="22" font-family="Roboto" color="#059451">110</text></g></g><rect y="0" height="52.413793103448285" width="38.76288659793815" rx="6" ry="6" transform="translate(15,65.51724137931035)" style="fill: rgb(152, 78, 163);"></rect><rect y="0" height="52.413793103448285" width="38.76288659793815" rx="6" ry="6" transform="translate(63.45360824742268,65.51724137931035)" style="fill: rgb(152, 78, 163);"></rect><rect y="0" height="52.413793103448285" width="24.22680412371136" rx="6" ry="6" transform="translate(107.06185567010309,65.51724137931035)" style="fill: rgb(152, 78, 163);"></rect><rect y="0" height="52.413793103448285" width="38.76288659793815" rx="6" ry="6" transform="translate(15,131.0344827586207)" style="fill: rgb(255, 127, 0);"></rect><rect y="0" height="52.413793103448285" width="50.39175257731959" rx="6" ry="6" transform="translate(63.45360824742268,131.0344827586207)" style="fill: rgb(255, 127, 0);"></rect><rect y="0" height="52.413793103448285" width="35.85567010309285" rx="6" ry="6" transform="translate(342.5463917525773,131.0344827586207)" style="fill: rgb(255, 127, 0);"></rect><rect y="0" height="52.413793103448285" width="38.76288659793812" rx="6" ry="6" transform="translate(388.0927835051546,196.55172413793105)" style="fill: rgb(228, 26, 28);"></rect><rect y="0" height="52.413793103448285" width="38.76288659793815" rx="6" ry="6" transform="translate(15,262.0689655172414)" style="fill: rgb(55, 126, 184);"></rect><rect y="0" height="52.413793103448285" width="53.29896907216495" rx="6" ry="6" transform="translate(63.45360824742268,262.0689655172414)" style="fill: rgb(55, 126, 184);"></rect><rect y="0" height="52.413793103448285" width="48.45360824742271" rx="6" ry="6" transform="translate(126.44329896907216,262.0689655172414)" style="fill: rgb(55, 126, 184);"></rect><rect y="0" height="52.413793103448285" width="45.546391752577335" rx="6" ry="6" transform="translate(184.58762886597935,262.0689655172414)" style="fill: rgb(55, 126, 184);"></rect><rect y="0" height="52.413793103448285" width="43.60824742268042" rx="6" ry="6" transform="translate(237.88659793814432,262.0689655172414)" style="fill: rgb(55, 126, 184);"></rect><rect y="0" height="52.413793103448285" width="48.453608247422665" rx="6" ry="6" transform="translate(291.1855670103093,262.0689655172414)" style="fill: rgb(55, 126, 184);"></rect><rect y="0" height="52.413793103448285" width="57.175257731958766" rx="6" ry="6" transform="translate(349.3298969072165,262.0689655172414)" style="fill: rgb(55, 126, 184);"></rect><rect y="0" height="52.413793103448285" width="61.05154639175248" rx="6" ry="6" transform="translate(610.979381443299,262.0689655172414)" style="fill: rgb(55, 126, 184);"></rect><rect y="0" height="52.413793103448285" width="53.29896907216494" rx="6" ry="6" transform="translate(901.7010309278351,262.0689655172414)" style="fill: rgb(55, 126, 184);"></rect></g></svg>