<svg width="1080" height="1080" class="svg-container"><g transform="translate(70,60)"><g transform="translate(0,965)" fill="none" font-size="10" font-family="sans-serif" text-anchor="middle"><path class="domain" stroke="currentColor" d="M10,6V0H940V6" stroke-width="2" opacity=".6" color="#059451"></path><g class="tick" opacity="1" transform="translate(10,0)"><line stroke="currentColor" y2="6"></line><text fill="currentColor" y="9" dy="0.71em" font-size="22" font-family="Roboto" color="#059451">06:00</text></g><g class="tick" opacity="1" transform="translate(126,0)"><line stroke="currentColor" y2="6"></line><text fill="currentColor" y="9" dy="0.71em" font-size="22" font-family="Roboto" color="#059451">06:30</text></g><g class="tick" opacity="1" transform="translate(243,0)"><line stroke="currentColor" y2="6"></line><text fill="currentColor" y="9" dy="0.71em" font-size="22" font-family="Roboto" color="#059451">07:00</text></g><g class="tick" opacity="1" transform="translate(359,0)"><line stroke="currentColor" y2="6"></line><text fill="currentColor" y="9" dy="0.71em" font-size="22" font-family="Roboto" color="#059451">07:30</text></g><g class="tick" opacity="1" transform="translate(475,0)"><line stroke="currentColor" y2="6"></line><text fill="currentColor" y="9" dy="0.71em" font-size="22" font-family="Roboto" color="#059451">08:00</text></g><g class="tick" opacity="1" transform="translate(591,0)"><line stroke="currentColor" y2="6"></line><text fill="currentColor" y="9" dy="0.71em" font-size="22" font-family="Roboto" color="#059451">08:30</text></g><g class="tick" opacity="1" transform="translate(708,0)"><line stroke="currentColor" y2="6"></line><text fill="currentColor" y="9" dy="0.71em" font-size="22" font-family="Roboto" color="#059451">09:00</text></g><g class="tick" opacity="1" transform="translate(824,0)"><line stroke="currentColor" y2="6"></line><text fill="currentColor" y="9" dy="0.71em" font-size="22" font-family="Roboto" color="#059451">09:30</text></g><g class="tick" opacity="1" transform="translate(940,0)"><line stroke="currentColor" y2="6"></line><text fill="currentColor" y="9" dy="0.71em" font-size="22" font-family="Roboto" color="#059451">10:00</text></g></g><g transform="translate(0,-5)" fill="none" font-size="10" font-family="sans-serif" text-anchor="middle"><path class="domain" stroke="currentColor" d="M10,-6V0H940V-6" stroke-width="2" opacity=".6" color="#059451"></path><g class="tick" opacity="1" transform="translate(10,0)"><line stroke="currentColor" y2="-6"></line><text fill="currentColor" y="-9" dy="0em" font-size="22" font-family="Roboto" color="#059451">06:00</text></g><g class="tick" opacity="1" transform="translate(126,0)"><line stroke="currentColor" y2="-6"></line><text fill="currentColor" y="-9" dy="0em" font-size="22" font-family="Roboto" color="#059451">06:30</text></g><g class="tick" opacity="1" transform="translate(243,0)"><line stroke="currentColor" y2="-6"></line><text fill="currentColor" y="-9" dy="0em" font-size="22" font-family="Roboto" color="#059451">07:00</text></g><g class="tick" opacity="1" transform="translate(359,0)"><line stroke="currentColor" y2="-6"></line><text fill="currentColor" y="-9" dy="0em" font-size="22" font-family="Roboto" color="#059451">07:30</text></g><g class="tick" opacity="1" transform="translate(475,0)"><line stroke="currentColor" y2="-6"></line><text fill="currentColor" y="-9" dy="0em" font-size="22" font-family="Roboto" color="#059451">08:00</text></g><g class="tick" opacity="1" transform="translate(591,0)"><line stroke="currentColor" y2="-6"></line><text fill="currentColor" y="-9" dy="0em" font-size="22" font-family="Roboto" color="#059451">08:30</text></g><g class="tick" opacity="1" transform="translate(708,0)"><line stroke="currentColor" y2="-6"></line><text fill="currentColor" y="-9" dy="0em" font-size="22" font-family="Roboto" color="#059451">09:00</text></g><g class="tick" opacity="1" transform="translate(824,0)"><line stroke="currentColor" y2="-6"></line><text fill="currentColor" y="-9" dy="0em" font-size="22" font-family="Roboto" color="#059451">09:30</text></g><g class="tick" opacity="1" transform="translate(940,0)"><line stroke="currentColor" y2="-6"></line><text fill="currentColor" y="-9" dy="0em" font-size="22" font-family="Roboto" color="#059451">10:00</text></g></g><g fill="none" font-size="10" font-family="sans-serif" text-anchor="end"><path class="domain" stroke="currentColor" d="M-6,960H0V0H-6" stroke-width="2" opacity=".6" color="#059451"></path><g class="tick" opacity="1" transform="translate(0,960)"><line stroke="currentColor" x2="-6"></line><text fill="currentColor" x="-9" dy="0.32em" font-size="22" font-family="Roboto" color="#059451">AB</text></g><g class="tick" opacity="1" transform="translate(0,0)"><line stroke="currentColor" x2="-6"></line><text fill="currentColor" x="-9" dy="0.32em" font-size="22" font-family="Roboto" color="#059451">BA</text></g></g><path fill="none" stroke="#FFA900" stroke-linejoin="round" stroke-linecap="round" stroke-width="3" d="M10,0L126,960L243,0L359,960L475,0L591,960L708,0L824,960L940,0"></path><path fill="none" stroke="#000000" stroke-linejoin="round" stroke-linecap="round" stroke-width="3" d="M126,0L243,960L359,0L475,960L591,0L824,0L940,960"></path><circle fill="#FFA900" stroke="#ffffff" stroke-width="2" cx="10" cy="0" r="8"></circle><circle fill="#FFA900" stroke="#ffffff" stroke-width="2" cx="126" cy="960" r="8"></circle><circle fill="#FFA900" stroke="#ffffff" stroke-width="2" cx="243" cy="0" r="8"></circle><circle fill="#FFA900" stroke="#ffffff" stroke-width="2" cx="359" cy="960" r="8"></circle><circle fill="#FFA900" stroke="#ffffff" stroke-width="2" cx="475" cy="0" r="8"></circle><circle fill="#FFA900" stroke="#ffffff" stroke-width="2" cx="591" cy="960" r="8"></circle><circle fill="#FFA900" stroke="#ffffff" stroke-width="2" cx="708" cy="0" r="8"></circle><circle fill="#FFA900" stroke="#ffffff" stroke-width="2" cx="824" cy="960" r="8"></circle><circle fill="#FFA900" stroke="#ffffff" stroke-width="2" cx="940" cy="0" r="8"></circle><circle fill="#000000" stroke="#ffffff" stroke-width="2" cx="126" cy="0" r="8"></circle><circle fill="#000000" stroke="#ffffff" stroke-width="2" cx="243" cy="960" r="8"></circle><circle fill="#000000" stroke="#ffffff" stroke-width="2" cx="359" cy="0" r="8"></circle><circle fill="#000000" stroke="#ffffff" stroke-width="2" cx="475" cy="960" r="8"></circle><circle fill="#000000" stroke="#ffffff" stroke-width="2" cx="591" cy="0" r="8"></circle><circle fill="#000000" stroke="#ffffff" stroke-width="2" cx="824" cy="0" r="8"></circle><circle fill="#000000" stroke="#ffffff" stroke-width="2" cx="940" cy="960" r="8"></circle></g></svg>