<svg width="1100" height="600" class="svg-container"><g transform="translate(70,60)"><g transform="translate(0,490)" fill="none" font-size="10" font-family="sans-serif" text-anchor="middle"><path class="domain" stroke="currentColor" d="M15,6V0H960V6" stroke-width="2" opacity=".6" color="#059451"></path><g class="tick" opacity="1" transform="translate(33.529411764705884,0)"><line stroke="currentColor" y2="6"></line><text fill="currentColor" y="9" dy="0.71em" font-size="22" font-family="Roboto" color="#059451">6:40</text></g><g class="tick" opacity="1" transform="translate(157.05882352941177,0)"><line stroke="currentColor" y2="6"></line><text fill="currentColor" y="9" dy="0.71em" font-size="22" font-family="Roboto" color="#059451">8:20</text></g><g class="tick" opacity="1" transform="translate(280.5882352941177,0)"><line stroke="currentColor" y2="6"></line><text fill="currentColor" y="9" dy="0.71em" font-size="22" font-family="Roboto" color="#059451">10:00</text></g><g class="tick" opacity="1" transform="translate(404.1176470588235,0)"><line stroke="currentColor" y2="6"></line><text fill="currentColor" y="9" dy="0.71em" font-size="22" font-family="Roboto" color="#059451">11:40</text></g><g class="tick" opacity="1" transform="translate(527.6470588235294,0)"><line stroke="currentColor" y2="6"></line><text fill="currentColor" y="9" dy="0.71em" font-size="22" font-family="Roboto" color="#059451">13:20</text></g><g class="tick" opacity="1" transform="translate(651.1764705882354,0)"><line stroke="currentColor" y2="6"></line><text fill="currentColor" y="9" dy="0.71em" font-size="22" font-family="Roboto" color="#059451">15:00</text></g><g class="tick" opacity="1" transform="translate(774.7058823529412,0)"><line stroke="currentColor" y2="6"></line><text fill="currentColor" y="9" dy="0.71em" font-size="22" font-family="Roboto" color="#059451">16:40</text></g><g class="tick" opacity="1" transform="translate(898.2352941176471,0)"><line stroke="currentColor" y2="6"></line><text fill="currentColor" y="9" dy="0.71em" font-size="22" font-family="Roboto" color="#059451">18:20</text></g></g><g transform="translate(0,-10)" fill="none" font-size="10" font-family="sans-serif" text-anchor="middle"><path class="domain" stroke="currentColor" d="M15,-6V0H960V-6" stroke-width="2" opacity=".6" color="#059451"></path><g class="tick" opacity="1" transform="translate(33.529411764705884,0)"><line stroke="currentColor" y2="-6"></line><text fill="currentColor" y="-9" dy="0em" font-size="22" font-family="Roboto" color="#059451">6:40</text></g><g class="tick" opacity="1" transform="translate(157.05882352941177,0)"><line stroke="currentColor" y2="-6"></line><text fill="currentColor" y="-9" dy="0em" font-size="22" font-family="Roboto" color="#059451">8:20</text></g><g class="tick" opacity="1" transform="translate(280.5882352941177,0)"><line stroke="currentColor" y2="-6"></line><text fill="currentColor" y="-9" dy="0em" font-size="22" font-family="Roboto" color="#059451">10:00</text></g><g class="tick" opacity="1" transform="translate(404.1176470588235,0)"><line stroke="currentColor" y2="-6"></line><text fill="currentColor" y="-9" dy="0em" font-size="22" font-family="Roboto" color="#059451">11:40</text></g><g class="tick" opacity="1" transform="translate(527.6470588235294,0)"><line stroke="currentColor" y2="-6"></line><text fill="currentColor" y="-9" dy="0em" font-size="22" font-family="Roboto" color="#059451">13:20</text></g><g class="tick" opacity="1" transform="translate(651.1764705882354,0)"><line stroke="currentColor" y2="-6"></line><text fill="currentColor" y="-9" dy="0em" font-size="22" font-family="Roboto" color="#059451">15:00</text></g><g class="tick" opacity="1" transform="translate(774.7058823529412,0)"><line stroke="currentColor" y2="-6"></line><text fill="currentColor" y="-9" dy="0em" font-size="22" font-family="Roboto" color="#059451">16:40</text></g><g class="tick" opacity="1" transform="translate(898.2352941176471,0)"><line stroke="currentColor" y2="-6"></line><text fill="currentColor" y="-9" dy="0em" font-size="22" font-family="Roboto" color="#059451">18:20</text></g></g><g fill="none" font-size="10" font-family="sans-serif" text-anchor="end"><path class="domain" stroke="currentColor" d="M-6,480H0V0H-6" stroke-width="2" opacity=".6" color="#059451"></path><g class="tick" opacity="1" transform="translate(0,480)"><line stroke="currentColor" x2="-6"></line><text fill="currentColor" x="-9" dy="0.32em" font-size="22" font-family="Roboto" color="#059451">AB</text></g><g class="tick" opacity="1" transform="translate(0,0)"><line stroke="currentColor" x2="-6"></line><text fill="currentColor" x="-9" dy="0.32em" font-size="22" font-family="Roboto" color="#059451">BA</text></g></g><g><path fill="none" stroke-linejoin="round" stroke-linecap="round" stroke="#984EA3" stroke-width="3" d="M15,480L64.41176470588235,0L82.94117647058823,480L132.35294117647058,0L150.88235294117646,480L212.64705882352942,0L237.35294117647058,480L286.7647058823529,0L305.29411764705884,480L360.88235294117646,0L379.4117647058823,480L434.99999999999994,0L459.70588235294116,480L509.11764705882354,0L533.8235294117648,480L577.0588235294118,0L595.5882352941177,480L657.3529411764706,0L675.8823529411765,480L731.470588235294,0L750,480L805.5882352941177,0L824.1176470588234,480L885.8823529411764,0L898.2352941176471,480L920.4705882352941,0L941.470588235294,480"></path></g><g><path fill="none" stroke-linejoin="round" stroke-linecap="round" stroke="#FF7F00" stroke-width="3" d="M70.58823529411765,480L132.35294117647058,480L432.52941176470586,0L459.70588235294116,480L502.9411764705883,0L533.8235294117648,480"></path></g><g><path fill="none" stroke-linejoin="round" stroke-linecap="round" stroke="#E41A1C" stroke-width="3" d="M885.8823529411764,0L922.9411764705883,480"></path></g><g><path fill="none" stroke-linejoin="round" stroke-linecap="round" stroke="#377EB8" stroke-width="3" d="M960,480Z"></path></g><circle stroke="#c3f3c3" stroke-width="2" r="6" cx="15" cy="480" style="fill: rgb(152, 78, 163);"></circle><circle stroke="#c3f3c3" stroke-width="2" r="6" cx="64.41176470588235" cy="0" style="fill: rgb(152, 78, 163);"></circle><circle stroke="#c3f3c3" stroke-width="2" r="6" cx="82.94117647058823" cy="480" style="fill: rgb(152, 78, 163);"></circle><circle stroke="#c3f3c3" stroke-width="2" r="6" cx="132.35294117647058" cy="0" style="fill: rgb(152, 78, 163);"></circle><circle stroke="#c3f3c3" stroke-width="2" r="6" cx="150.88235294117646" cy="480" style="fill: rgb(152, 78, 163);"></circle><circle stroke="#c3f3c3" stroke-width="2" r="6" cx="212.64705882352942" cy="0" style="fill: rgb(152, 78, 163);"></circle><circle stroke="#c3f3c3" stroke-width="2" r="6" cx="237.35294117647058" cy="480" style="fill: rgb(152, 78, 163);"></circle><circle stroke="#c3f3c3" stroke-width="2" r="6" cx="286.7647058823529" cy="0" style="fill: rgb(152, 78, 163);"></circle><circle stroke="#c3f3c3" stroke-width="2" r="6" cx="305.29411764705884" cy="480" style="fill: rgb(152, 78, 163);"></circle><circle stroke="#c3f3c3" stroke-width="2" r="6" cx="360.88235294117646" cy="0" style="fill: rgb(152, 78, 163);"></circle><circle stroke="#c3f3c3" stroke-width="2" r="6" cx="379.4117647058823" cy="480" style="fill: rgb(152, 78, 163);"></circle><circle stroke="#c3f3c3" stroke-width="2" r="6" cx="434.99999999999994" cy="0" style="fill: rgb(152, 78, 163);"></circle><circle stroke="#c3f3c3" stroke-width="2" r="6" cx="459.70588235294116" cy="480" style="fill: rgb(152, 78, 163);"></circle><circle stroke="#c3f3c3" stroke-width="2" r="6" cx="509.11764705882354" cy="0" style="fill: rgb(152, 78, 163);"></circle><circle stroke="#c3f3c3" stroke-width="2" r="6" cx="533.8235294117648" cy="480" style="fill: rgb(152, 78, 163);"></circle><circle stroke="#c3f3c3" stroke-width="2" r="6" cx="577.0588235294118" cy="0" style="fill: rgb(152, 78, 163);"></circle><circle stroke="#c3f3c3" stroke-width="2" r="6" cx="595.5882352941177" cy="480" style="fill: rgb(152, 78, 163);"></circle><circle stroke="#c3f3c3" stroke-width="2" r="6" cx="657.3529411764706" cy="0" style="fill: rgb(152, 78, 163);"></circle><circle stroke="#c3f3c3" stroke-width="2" r="6" cx="675.8823529411765" cy="480" style="fill: rgb(152, 78, 163);"></circle><circle stroke="#c3f3c3" stroke-width="2" r="6" cx="731.470588235294" cy="0" style="fill: rgb(152, 78, 163);"></circle><circle stroke="#c3f3c3" stroke-width="2" r="6" cx="750" cy="480" style="fill: rgb(152, 78, 163);"></circle><circle stroke="#c3f3c3" stroke-width="2" r="6" cx="805.5882352941177" cy="0" style="fill: rgb(152, 78, 163);"></circle><circle stroke="#c3f3c3" stroke-width="2" r="6" cx="824.1176470588234" cy="480" style="fill: rgb(152, 78, 163);"></circle><circle stroke="#c3f3c3" stroke-width="2" r="6" cx="885.8823529411764" cy="0" style="fill: rgb(152, 78, 163);"></circle><circle stroke="#c3f3c3" stroke-width="2" r="6" cx="898.2352941176471" cy="480" style="fill: rgb(152, 78, 163);"></circle><circle stroke="#c3f3c3" stroke-width="2" r="6" cx="920.4705882352941" cy="0" style="fill: rgb(152, 78, 163);"></circle><circle stroke="#c3f3c3" stroke-width="2" r="6" cx="941.470588235294" cy="480" style="fill: rgb(152, 78, 163);"></circle><circle stroke="#c3f3c3" stroke-width="2" r="6" cx="70.58823529411765" cy="480" style="fill: rgb(255, 127, 0);"></circle><circle stroke="#c3f3c3" stroke-width="2" r="6" cx="132.35294117647058" cy="480" style="fill: rgb(255, 127, 0);"></circle><circle stroke="#c3f3c3" stroke-width="2" r="6" cx="432.52941176470586" cy="0" style="fill: rgb(255, 127, 0);"></circle><circle stroke="#c3f3c3" stroke-width="2" r="6" cx="459.70588235294116" cy="480" style="fill: rgb(255, 127, 0);"></circle><circle stroke="#c3f3c3" stroke-width="2" r="6" cx="502.9411764705883" cy="0" style="fill: rgb(255, 127, 0);"></circle><circle stroke="#c3f3c3" stroke-width="2" r="6" cx="533.8235294117648" cy="480" style="fill: rgb(255, 127, 0);"></circle><circle stroke="#c3f3c3" stroke-width="2" r="6" cx="885.8823529411764" cy="0" style="fill: rgb(228, 26, 28);"></circle><circle stroke="#c3f3c3" stroke-width="2" r="6" cx="922.9411764705883" cy="480" style="fill: rgb(228, 26, 28);"></circle><circle stroke="#c3f3c3" stroke-width="2" r="6" cx="960" cy="480" style="fill: rgb(55, 126, 184);"></circle></g></svg>