<svg width="3287" height="603" viewBox="0 0 3287 603" fill="none" xmlns="http://www.w3.org/2000/svg">
<path d="M850.203 149.808H978.443L970.301 167.085C970.301 167.085 1009.26 153.148 1036 149.808C1059.85 146.829 1120.93 149.808 1120.93 149.808L1079.5 255C1079.5 255 966.32 217.733 932 277.5C926.184 287.628 844.209 476.29 844.209 476.29H706.551L850.203 149.808Z" fill="#059451"/>
<path d="M1360.74 384.34C1314.95 472.106 1221.01 513.611 1150.92 477.043C1080.82 440.475 1061.12 339.682 1106.91 251.915C1152.7 164.149 1246.64 122.644 1316.73 159.212C1386.82 195.78 1406.53 296.573 1360.74 384.34ZM1181.03 290.585C1161.98 327.094 1170.18 369.021 1199.33 384.233C1228.49 399.444 1267.57 382.179 1286.62 345.67C1305.66 309.161 1297.47 267.234 1268.31 252.022C1239.15 236.811 1200.08 254.076 1181.03 290.585Z" fill="#059451"/>
<path d="M1820.11 154H1497.35L1350 487.35H1472.38L1508.22 405.5L1666.24 404.31L1700.87 326.33H1543.8L1576 252.963H1776.1L1820.11 154Z" fill="#059451"/>
<path d="M1860.7 154.562H1983.24C1983.24 154.562 1940.75 254.823 1911.97 315.217C1898.47 343.55 1882.02 384.098 1915.75 395.842C1968.66 414.267 2002.89 332.473 2002.89 332.473L2081.94 154.562H2181.08L2035.14 485.988H1924.47L1946.17 447.609C1946.17 447.609 1911.81 485.988 1827.5 485.988C1737.98 485.988 1749.5 407 1772.89 353.893C1807.18 276.05 1860.7 154.562 1860.7 154.562Z" fill="#059451"/>
<path d="M2227.6 154.562H2521.65L2482.93 241.918L2254.97 403.892H2407.23L2370.26 487.912H2080L2117.55 403.892L2325.13 241.918H2189.17L2227.6 154.562Z" fill="#059451"/>
<path d="M2567.53 154.562H2861.18L2822.51 241.918L2594.86 403.892H2746.92L2709.99 487.912H2420.12L2457.63 403.892L2664.93 241.918H2529.15L2567.53 154.562Z" fill="#059451"/>
<path d="M2895.02 154.562H3007.72L3023.16 279.027L3162.65 154.562H3287L3026.94 362.996L2973.65 482.101H2871.43L2923.85 362.996L2895.02 154.562Z" fill="#059451"/>
<path d="M694.026 572.795C693.272 582.09 689.41 589.407 682.442 594.747C675.518 600.087 666.375 602.757 655.012 602.757C642.585 602.757 632.798 599.039 625.652 591.603C618.551 584.127 615 573.883 615 560.87V555.59C615 547.284 616.642 539.966 619.927 533.638C623.211 527.31 627.894 522.464 633.974 519.102C640.099 515.701 647.201 514 655.279 514C666.463 514 675.473 516.67 682.309 522.009C689.144 527.349 693.094 534.844 694.159 544.495H674.186C673.698 538.918 671.945 534.884 668.927 532.392C665.953 529.861 661.404 528.595 655.279 528.595C648.621 528.595 643.628 530.731 640.299 535.003C637.015 539.235 635.328 545.82 635.239 554.759V561.285C635.239 570.62 636.815 577.443 639.966 581.754C643.162 586.065 648.177 588.221 655.012 588.221C661.182 588.221 665.776 586.975 668.794 584.483C671.856 581.952 673.609 578.056 674.053 572.795H694.026Z" fill="#059451"/>
<path d="M814.037 560.336C814.037 568.84 812.35 576.296 808.977 582.703C805.604 589.111 800.766 594.055 794.463 597.536C788.205 601.016 781.015 602.757 772.892 602.757C764.859 602.757 757.691 601.036 751.388 597.595C745.086 594.154 740.203 589.249 736.741 582.881C733.279 576.474 731.526 569.117 731.482 560.811V556.539C731.482 548.035 733.191 540.56 736.608 534.113C740.07 527.626 744.93 522.662 751.189 519.221C757.491 515.74 764.681 514 772.759 514C780.837 514 788.005 515.74 794.263 519.221C800.566 522.662 805.426 527.626 808.844 534.113C812.306 540.56 814.037 548.015 814.037 556.48V560.336ZM793.797 556.42C793.797 547.363 791.978 540.481 788.338 535.774C784.699 531.067 779.506 528.714 772.759 528.714C766.057 528.714 760.886 531.047 757.247 535.714C753.607 540.342 751.766 547.145 751.721 556.124V560.336C751.721 569.156 753.541 575.999 757.18 580.864C760.82 585.729 766.057 588.162 772.892 588.162C779.594 588.162 784.743 585.828 788.338 581.161C791.933 576.454 793.753 569.611 793.797 560.633V556.42Z" fill="#059451"/>
<path d="M934.646 601.57H914.673L875.793 544.733V601.57H855.82V515.187H875.793L914.74 572.143V515.187H934.646V601.57Z" fill="#059451"/>
<path d="M1029.62 578.906C1029.62 575.544 1028.29 572.973 1025.63 571.193C1022.97 569.374 1018.17 567.475 1011.25 565.498C1004.32 563.481 998.844 561.503 994.805 559.565C983.797 554.265 978.294 547.125 978.294 538.147C978.294 533.48 979.758 529.327 982.688 525.688C985.661 522.009 989.9 519.142 995.404 517.085C1000.95 515.028 1007.17 514 1014.05 514C1020.97 514 1027.14 515.127 1032.55 517.382C1037.97 519.597 1042.16 522.741 1045.14 526.815C1048.15 530.889 1049.66 535.517 1049.66 540.698H1029.69C1029.69 536.743 1028.29 533.678 1025.5 531.502C1022.7 529.287 1018.77 528.18 1013.71 528.18C1008.83 528.18 1005.04 529.109 1002.33 530.968C999.62 532.788 998.267 535.2 998.267 538.206C998.267 541.015 999.842 543.368 1002.99 545.266C1006.19 547.165 1010.87 548.945 1017.04 550.606C1028.4 553.652 1036.68 557.429 1041.87 561.938C1047.07 566.447 1049.66 572.064 1049.66 578.788C1049.66 586.263 1046.49 592.137 1040.14 596.408C1033.8 600.64 1025.25 602.757 1014.51 602.757C1007.05 602.757 1000.26 601.55 994.139 599.137C988.014 596.685 983.331 593.343 980.091 589.111C976.896 584.879 975.298 579.974 975.298 574.397H995.337C995.337 583.929 1001.73 588.695 1014.51 588.695C1019.26 588.695 1022.97 587.845 1025.63 586.144C1028.29 584.404 1029.62 581.991 1029.62 578.906Z" fill="#059451"/>
<path d="M1163.88 515.187V572.083C1163.88 581.536 1160.55 589.012 1153.9 594.51C1147.28 600.008 1138.23 602.757 1126.73 602.757C1115.41 602.757 1106.43 600.087 1099.77 594.747C1093.11 589.407 1089.72 582.07 1089.58 572.736V515.187H1109.56V572.202C1109.56 577.858 1111.06 581.991 1114.08 584.602C1117.15 587.173 1121.36 588.458 1126.73 588.458C1137.96 588.458 1143.66 583.198 1143.84 572.677V515.187H1163.88Z" fill="#059451"/>
<path d="M1227.5 587.272H1269.91V601.57H1207.53V515.187H1227.5V587.272Z" fill="#059451"/>
<path d="M1367.95 529.604H1338.26V601.57H1318.29V529.604H1288.99V515.187H1367.95V529.604Z" fill="#059451"/>
<path d="M1484.43 560.336C1484.43 568.84 1482.75 576.296 1479.37 582.703C1476 589.111 1471.16 594.055 1464.86 597.536C1458.6 601.016 1451.41 602.757 1443.29 602.757C1435.26 602.757 1428.09 601.036 1421.79 597.595C1415.48 594.154 1410.6 589.249 1407.14 582.881C1403.68 576.474 1401.92 569.117 1401.88 560.811V556.539C1401.88 548.035 1403.59 540.56 1407.01 534.113C1410.47 527.626 1415.33 522.662 1421.59 519.221C1427.89 515.74 1435.08 514 1443.16 514C1451.23 514 1458.4 515.74 1464.66 519.221C1470.96 522.662 1475.82 527.626 1479.24 534.113C1482.7 540.56 1484.43 548.015 1484.43 556.48V560.336ZM1464.19 556.42C1464.19 547.363 1462.37 540.481 1458.73 535.774C1455.1 531.067 1449.9 528.714 1443.16 528.714C1436.45 528.714 1431.28 531.047 1427.64 535.714C1424 540.342 1422.16 547.145 1422.12 556.124V560.336C1422.12 569.156 1423.94 575.999 1427.58 580.864C1431.22 585.729 1436.45 588.162 1443.29 588.162C1449.99 588.162 1455.14 585.828 1458.73 581.161C1462.33 576.454 1464.15 569.611 1464.19 560.633V556.42Z" fill="#059451"/>
<path d="M1562.1 569.947H1546.19V601.57H1526.22V515.187H1562.23C1573.69 515.187 1582.52 517.461 1588.73 522.009C1594.95 526.558 1598.05 532.985 1598.05 541.291C1598.05 547.185 1596.61 552.109 1593.73 556.064C1590.88 559.98 1586.56 563.105 1580.74 565.438L1601.71 600.739V601.57H1580.28L1562.1 569.947ZM1546.19 555.53H1562.3C1567.32 555.53 1571.2 554.403 1573.95 552.149C1576.7 549.855 1578.08 546.71 1578.08 542.715C1578.08 538.641 1576.77 535.438 1574.15 533.104C1571.58 530.77 1567.6 529.604 1562.23 529.604H1546.19V555.53Z" fill="#059451"/>
<path d="M1661.81 601.57H1641.83V515.187H1661.81V601.57Z" fill="#059451"/>
<path d="M1763.57 583.771H1728.56L1721.9 601.57H1700.66L1736.74 515.187H1755.25L1791.54 601.57H1770.3L1763.57 583.771ZM1733.95 569.354H1758.18L1746 537.02L1733.95 569.354Z" fill="#059451"/>
<path d="M1947.41 564.133H1909.06V587.272H1954.06V601.57H1889.08V515.187H1953.93V529.604H1909.06V550.191H1947.41V564.133Z" fill="#059451"/>
<path d="M2104.54 578.906C2104.54 575.544 2103.21 572.973 2100.54 571.193C2097.88 569.374 2093.09 567.475 2086.16 565.498C2079.24 563.481 2073.76 561.503 2069.72 559.565C2058.71 554.265 2053.21 547.125 2053.21 538.147C2053.21 533.48 2054.67 529.327 2057.6 525.688C2060.58 522.009 2064.81 519.142 2070.32 517.085C2075.87 515.028 2082.08 514 2088.96 514C2095.88 514 2102.05 515.127 2107.47 517.382C2112.88 519.597 2117.08 522.741 2120.05 526.815C2123.07 530.889 2124.58 535.517 2124.58 540.698H2104.61C2104.61 536.743 2103.21 533.678 2100.41 531.502C2097.61 529.287 2093.69 528.18 2088.63 528.18C2083.74 528.18 2079.95 529.109 2077.24 530.968C2074.53 532.788 2073.18 535.2 2073.18 538.206C2073.18 541.015 2074.76 543.368 2077.91 545.266C2081.1 547.165 2085.79 548.945 2091.96 550.606C2103.32 553.652 2111.6 557.429 2116.79 561.938C2121.98 566.447 2124.58 572.064 2124.58 578.788C2124.58 586.263 2121.4 592.137 2115.06 596.408C2108.71 600.64 2100.17 602.757 2089.43 602.757C2081.97 602.757 2075.18 601.55 2069.05 599.137C2062.93 596.685 2058.25 593.343 2055.01 589.111C2051.81 584.879 2050.21 579.974 2050.21 574.397H2070.25C2070.25 583.929 2076.64 588.695 2089.43 588.695C2094.17 588.695 2097.88 587.845 2100.54 586.144C2103.21 584.404 2104.54 581.991 2104.54 578.906Z" fill="#059451"/>
<path d="M2186.67 601.57H2166.69V515.187H2186.67V601.57Z" fill="#059451"/>
<path d="M2282.78 578.906C2282.78 575.544 2281.45 572.973 2278.78 571.193C2276.12 569.374 2271.33 567.475 2264.4 565.498C2257.48 563.481 2252 561.503 2247.96 559.565C2236.95 554.265 2231.45 547.125 2231.45 538.147C2231.45 533.48 2232.91 529.327 2235.84 525.688C2238.81 522.009 2243.05 519.142 2248.56 517.085C2254.1 515.028 2260.32 514 2267.2 514C2274.12 514 2280.29 515.127 2285.71 517.382C2291.12 519.597 2295.32 522.741 2298.29 526.815C2301.31 530.889 2302.82 535.517 2302.82 540.698H2282.84C2282.84 536.743 2281.45 533.678 2278.65 531.502C2275.85 529.287 2271.92 528.18 2266.86 528.18C2261.98 528.18 2258.19 529.109 2255.48 530.968C2252.77 532.788 2251.42 535.2 2251.42 538.206C2251.42 541.015 2252.99 543.368 2256.15 545.266C2259.34 547.165 2264.02 548.945 2270.19 550.606C2281.56 553.652 2289.83 557.429 2295.03 561.938C2300.22 566.447 2302.82 572.064 2302.82 578.788C2302.82 586.263 2299.64 592.137 2293.3 596.408C2286.95 600.64 2278.4 602.757 2267.66 602.757C2260.21 602.757 2253.42 601.55 2247.29 599.137C2241.17 596.685 2236.48 593.343 2233.24 589.111C2230.05 584.879 2228.45 579.974 2228.45 574.397H2248.49C2248.49 583.929 2254.88 588.695 2267.66 588.695C2272.41 588.695 2276.12 587.845 2278.78 586.144C2281.45 584.404 2282.78 581.991 2282.78 578.906Z" fill="#059451"/>
<path d="M2416.64 529.604H2386.94V601.57H2366.97V529.604H2337.68V515.187H2416.64V529.604Z" fill="#059451"/>
<path d="M2513.68 564.133H2475.33V587.272H2520.33V601.57H2455.36V515.187H2520.2V529.604H2475.33V550.191H2513.68V564.133Z" fill="#059451"/>
<path d="M2585.42 515.187L2610.32 577.838L2635.09 515.187H2661.32V601.57H2641.28V577.957L2643.27 537.198L2617.11 601.57H2603.39L2577.3 537.257L2579.29 577.957V601.57H2559.32V515.187H2585.42Z" fill="#059451"/>
<path d="M2761.95 583.771H2726.93L2720.28 601.57H2699.04L2735.12 515.187H2753.63L2789.92 601.57H2768.68L2761.95 583.771ZM2732.33 569.354H2756.56L2744.38 537.02L2732.33 569.354Z" fill="#059451"/>
<path d="M2876.5 578.906C2876.5 575.544 2875.17 572.973 2872.51 571.193C2869.85 569.374 2865.05 567.475 2858.13 565.498C2851.21 563.481 2845.72 561.503 2841.68 559.565C2830.68 554.265 2825.17 547.125 2825.17 538.147C2825.17 533.48 2826.64 529.327 2829.57 525.688C2832.54 522.009 2836.78 519.142 2842.28 517.085C2847.83 515.028 2854.05 514 2860.93 514C2867.85 514 2874.02 515.127 2879.43 517.382C2884.85 519.597 2889.04 522.741 2892.02 526.815C2895.03 530.889 2896.54 535.517 2896.54 540.698H2876.57C2876.57 536.743 2875.17 533.678 2872.38 531.502C2869.58 529.287 2865.65 528.18 2860.59 528.18C2855.71 528.18 2851.92 529.109 2849.21 530.968C2846.5 532.788 2845.15 535.2 2845.15 538.206C2845.15 541.015 2846.72 543.368 2849.87 545.266C2853.07 547.165 2857.75 548.945 2863.92 550.606C2875.28 553.652 2883.56 557.429 2888.75 561.938C2893.95 566.447 2896.54 572.064 2896.54 578.788C2896.54 586.263 2893.37 592.137 2887.02 596.408C2880.68 600.64 2872.13 602.757 2861.39 602.757C2853.93 602.757 2847.14 601.55 2841.02 599.137C2834.89 596.685 2830.21 593.343 2826.97 589.111C2823.78 584.879 2822.18 579.974 2822.18 574.397H2842.22C2842.22 583.929 2848.61 588.695 2861.39 588.695C2866.14 588.695 2869.85 587.845 2872.51 586.144C2875.17 584.404 2876.5 581.991 2876.5 578.906Z" fill="#059451"/>
<g clip-path="url(#clip0_57_2871)">
<path d="M44.4603 0.383728C27.6956 2.18719 12.8423 12.3176 5.43558 26.976C2.96667 31.8109 1.49329 36.4924 0.657048 41.7878C-0.219016 47.2751 -0.219016 467.61 0.657048 473.097C3.16578 489.06 12.9219 502.337 27.4168 509.513C30.3636 510.971 32.3148 511.738 35.3014 512.621C39.7614 513.926 40.956 514.156 45.8938 514.578L50.8316 515L163.326 504.409C225.208 498.576 276.378 493.742 277.016 493.626C278.17 493.435 278.648 492.514 288.723 472.598C294.497 461.163 318.589 413.543 342.242 366.805C365.896 320.067 401.337 249.96 421.009 211.011L456.808 140.214L528.924 140.099L601 140.022L600.841 113.43C600.721 87.9118 600.681 86.7223 599.845 83.3455C597.615 74.0593 593.753 66.4615 588.178 60.437C583.24 55.1032 578.023 51.6497 571.891 49.7694C568.705 48.7717 554.051 47.3519 309.868 24.3282C167.627 10.9362 50.314 0 49.2388 0C48.1238 0.0383301 46.0133 0.191833 44.4603 0.383728Z" fill="#059451"/>
<path d="M600.61 174.543C600.61 206.959 600.65 208.723 601.326 208.455C603.236 207.726 611.232 205.961 614.693 205.578C619.388 205.002 627.424 205.271 631.561 206.115C652.607 210.526 666.849 226.369 670.867 249.923C671.862 255.754 671.862 268.068 670.867 274.436C666.73 300.637 652.169 325.648 631.243 342.604C623.525 348.857 613.102 354.765 604.588 357.642L600.809 358.946L600.53 371.337C599.854 403.215 598.541 414.877 592.613 441.998C591.499 447.062 590.704 451.243 590.823 451.397C591.221 451.742 601.525 450.744 607.731 449.747C657.699 441.576 703.529 405.593 730.741 353.23C743.034 329.523 750.076 305.892 752.582 279.998C753.139 274.283 753.139 258.478 752.582 252.57C747.848 202.24 718.607 165.759 670.271 149.8C651.612 143.624 630.368 140.363 608.885 140.363H600.61V174.543Z" fill="#059451"/>
<path d="M595.637 210.795C561.224 224.068 537.553 252.225 531.029 287.556C528.244 302.632 529.477 318.974 534.411 331.672C540.1 346.326 550.165 356.606 563.015 360.864C567.669 362.399 571.528 362.936 577.336 362.974C584.537 362.974 591.937 361.708 598.342 359.407L600.61 358.601V283.797C600.61 242.673 600.49 209.031 600.331 209.069C600.132 209.069 598.063 209.836 595.637 210.795Z" fill="#059451"/>
<path d="M477.043 427.613C473.821 433.674 466.58 447.254 460.971 457.803C455.322 468.352 450.747 477.022 450.787 477.022C450.826 477.06 477.242 474.605 509.506 471.575C563.89 466.473 568.425 465.974 571.568 465.015C577.575 463.097 582.827 459.683 587.64 454.542L589.988 452.049L581.076 451.78C571.568 451.512 565.76 450.898 557.445 449.325C537.076 445.412 515.752 436.359 489.257 420.439L482.852 416.641L477.043 427.613Z" fill="#059451"/>
<path d="M362.985 485.577L278.286 493.479L276.019 498.082C274.746 500.614 262.294 525.089 248.37 552.517C234.445 579.907 223.067 602.463 223.067 602.655C223.067 602.847 257.878 602.962 305.1 602.924L387.094 602.809L394.334 587.848C406.627 562.299 430.895 514.233 444.739 487.802L450.11 477.559L448.877 477.598C448.201 477.636 409.531 481.204 362.985 485.577Z" fill="#059451"/>
</g>
<defs>
<clipPath id="clip0_57_2871">
<rect width="753" height="603" fill="white"/>
</clipPath>
</defs>
</svg>
